<svg fill-rule="evenodd" fill="#6e6e6e" stroke-linejoin="round" viewBox="0 0 13 13" xmlns="http://www.w3.org/2000/svg">
    <path d="m.508.428h9.953c.28 0 .508.227.508.508v4.305c0 .179-.177.304-.35.263-.275-.065-.562-.099-.856-.099-2.041 0-3.695 1.654-3.695 3.694 0 .328.043.646.124.949.046.176-.08.359-.262.359h-5.422c-.281 0-.508-.228-.508-.508v-8.963c0-.281.227-.508.508-.508zm4.138 6.04c.151 0 .267-.048.346-.144.079-.099.118-.217.118-.355v-.023c0-.137-.039-.254-.118-.349-.079-.1-.195-.149-.346-.149-.152 0-.267.049-.346.149-.079.095-.119.212-.119.349v.023c0 .138.04.256.119.355.079.096.194.144.346.144zm-.423-3.515.268 1.971h.31l.268-1.971v-.667h-.846zm-2.323 0 .268 1.971h.31l.268-1.971v-.667h-.846zm.423 3.515c.151 0 .267-.048.346-.144.079-.099.118-.217.118-.355v-.023c0-.137-.039-.254-.118-.349-.079-.1-.195-.149-.346-.149-.152 0-.267.049-.346.149-.079.095-.119.212-.119.349v.023c0 .138.04.256.119.355.079.096.194.144.346.144z"/>
    <path d="m12.854 11.721-.486-.486-.194-.194c-.093-.093-.101-.238-.031-.348.279-.433.442-.948.442-1.501 0-1.119-.665-2.086-1.62-2.527-.159-.073-.326-.132-.499-.175-.161-.039-.327-.065-.498-.075-.055-.004-.11-.006-.166-.006-.855 0-1.621.388-2.131.997-.243.288-.427.626-.537.996-.074.251-.115.516-.115.79 0 .07.004.139.009.207.012.171.04.338.082.499.045.173.107.34.183.498.45.933 1.406 1.579 2.509 1.579.467 0 .907-.116 1.293-.32.108-.057.241-.043.326.043l.214.214.358.358.156.156c.098.097.225.146.353.146.127 0 .255-.049.352-.146.195-.195.195-.51 0-.705zm-3.052-.743c-.521 0-.991-.224-1.318-.582-.133-.146-.243-.314-.322-.498-.068-.156-.113-.324-.134-.499-.008-.068-.012-.137-.012-.207 0-.985.801-1.786 1.786-1.786.056 0 .111.003.166.008.175.017.342.058.498.121.184.074.352.177.499.304.381.327.623.812.623 1.353 0 .985-.801 1.786-1.786 1.786z"
          fill-rule="nonzero"/>
</svg>
