<svg fill="#ced0d6" width="20" height="20" viewBox="0 0 20 20" xmlns="http://www.w3.org/2000/svg">
    <path d="m2.414 2.059h13.588c.733 0 1.328.595 1.328 1.328v5.877c0 .65-.627 1.126-1.259.976-.328-.077-.67-.119-1.022-.119-2.435 0-4.41 1.975-4.41 4.41 0 .392.051.772.147 1.134.169.638-.309 1.285-.969 1.285h-7.403c-.733 0-1.327-.594-1.327-1.327v-12.236c0-.733.594-1.328 1.327-1.328zm7.074 13.624c-.076-.372-.116-.757-.116-1.152 0-3.135 2.542-5.677 5.677-5.677.346 0 .684.031 1.013.09v-5.557c0-.033-.027-.06-.06-.06h-13.588c-.033 0-.06.027-.06.06v12.236c0 .033.027.06.06.06z"/>
    <path d="m18.909 17.768-.59-.593-.236-.236c-.112-.113-.122-.29-.037-.423.339-.529.536-1.157.536-1.83 0-1.364-.807-2.542-1.967-3.08-.193-.089-.396-.161-.606-.213-.196-.048-.398-.08-.605-.092-.067-.004-.134-.006-.202-.006-1.038 0-1.968.472-2.589 1.214-.294.351-.518.763-.651 1.214-.091.306-.14.629-.14.963 0 .085.004.169.01.252.016.208.049.412.1.608.056.211.13.414.223.607.546 1.138 1.707 1.924 3.047 1.924.567 0 1.102-.141 1.571-.39.13-.069.292-.052.396.053l.26.261.435.436.189.19c.118.119.273.178.428.178s.31-.059.428-.178c.237-.237.237-.622 0-.859zm-3.707-.905c-.633 0-1.204-.274-1.601-.71-.162-.178-.295-.383-.391-.607-.082-.19-.137-.394-.162-.608-.01-.082-.015-.167-.015-.252 0-1.2.973-2.176 2.169-2.176.068 0 .135.003.202.009.212.02.415.071.605.147.223.09.427.216.606.37.462.4.756.991.756 1.65 0 1.2-.973 2.177-2.169 2.177z"/>
</svg>
