<svg stroke-linejoin="round" viewBox="0 0 16 16" fill="#6c707e" xmlns="http://www.w3.org/2000/svg">
    <path d="m2.92 1.395h10.719c.578 0 1.047.469 1.047 1.047v4.637c0 .512-.494.888-.993.77-.258-.062-.528-.094-.806-.094-1.921 0-3.478 1.557-3.478 3.478 0 .31.04.609.115.895.134.503-.244 1.014-.764 1.014h-5.84c-.578 0-1.047-.469-1.047-1.047v-9.653c0-.578.469-1.046 1.047-1.047zm5.581 10.747c-.061-.294-.092-.597-.092-.909 0-2.473 2.005-4.478 4.478-4.478.273 0 .54.024.799.071v-4.384c0-.026-.021-.047-.047-.047h-10.719c-.026 0-.047.021-.047.047v9.653c0 .026.021.047.047.047z"/>
    <path d="m15.932 13.787-.466-.468-.186-.187c-.088-.088-.096-.228-.029-.333.267-.417.423-.912.423-1.444 0-1.076-.637-2.005-1.552-2.429-.152-.071-.312-.127-.478-.168-.154-.038-.314-.063-.477-.073-.053-.003-.106-.005-.159-.005-.819 0-1.553.373-2.042.958-.232.277-.409.602-.514.958-.072.241-.11.496-.11.759 0 .067.003.134.008.199.012.165.038.325.079.48.043.166.102.326.175.479.431.897 1.347 1.518 2.404 1.518.447 0 .869-.112 1.239-.308.103-.054.23-.041.312.041l.205.206.343.344.15.15c.093.094.215.141.337.141.123 0 .245-.047.338-.141.187-.187.187-.49 0-.677zm-2.924-.715c-.5 0-.95-.216-1.263-.559-.128-.141-.233-.302-.309-.479-.064-.15-.108-.311-.128-.479-.007-.066-.011-.132-.011-.2 0-.946.767-1.716 1.711-1.716.053 0 .106.002.159.007.167.016.328.056.477.116.176.071.337.17.478.292.365.315.597.782.597 1.301 0 .947-.768 1.717-1.711 1.717z"/>
</svg>
